# xmcd CD database file
#
# Track frame offsets:
#	150
#	13005
#	40237
#	58767
#	74655
#	95260
#	114290
#	135862
#	155797
#	172655
#	201085
#	219092
#
# Disc length: 3089 seconds
#
# Revision: 0
# Processed by: cddbd v1.4PL0 Copyright (c) Steve Scherf et al.
# Submitted via: CDex 1.50beta10
#
DISCID=9a0c0f0c
DTITLE=Svend Asmussen - Fiddler Supreme
DYEAR=1989
DGENRE=Jazz
TTITLE0=Limehouse Blues
TTITLE1=There Will Never Be Another You
TTITLE2=I`ve Got Rhythm
TTITLE3=I Concentrate On You
TTITLE4=Pent Up House
TTITLE5=Trubbel
TTITLE6=Pacos Delight
TTITLE7=Once Upon A summertime
TTITLE8=Oleo
TTITLE9=In A Sentimental Mood
TTITLE10=Desperado
TTITLE11=June Night
EXTD=YEAR: 1989
EXTT0=
EXTT1=
EXTT2=
EXTT3=
EXTT4=
EXTT5=
EXTT6=
EXTT7=
EXTT8=
EXTT9=
EXTT10=
EXTT11=
PLAYORDER=
